<svg width="146" height="146" viewBox="0 0 146 146" fill="none" xmlns="http://www.w3.org/2000/svg">
<g filter="url(#filter0_f_47_27)">
<path d="M78.3276 113.284C82.3876 115.63 85.5652 117.796 87.2143 122.331C87.9487 127.986 87.5533 132.545 84.2143 137.331C80.6178 140.748 77.612 141.664 72.7768 141.956C67.7538 141.778 65.1272 140.494 61.5541 137.034C58.6259 133.312 57.7537 130.222 57.9057 125.421C58.5467 121.08 60.4363 117.823 63.7924 115.007C68.4781 111.999 73.0271 110.894 78.3276 113.284ZM65.2143 119.394C62.8199 122.91 62.2143 125.083 62.2143 129.331C63.6839 132.564 65.4926 135.057 68.2143 137.331C71.2787 138.02 74.1359 137.925 77.2143 137.331C79.97 135.149 81.6502 133.459 83.2143 130.331C83.6087 126.15 83.6646 124.022 81.3393 120.456C78.4949 117.612 76.8255 117.127 72.9018 116.956C69.2726 117.009 68.3399 117.245 65.2143 119.394Z" fill="#7767DA"/>
</g>
<g filter="url(#filter1_f_47_27)">
<path d="M77.2142 4.33101C82.3163 7.02645 85.3881 9.85244 87.2142 15.331C87.716 21.4519 87.3026 24.4477 83.2142 29.331C79.268 32.799 75.6244 33.7526 70.3432 33.6748C66.5084 33.0556 63.9099 31.0409 61.2142 28.331C58.27 23.9621 57.5727 20.5546 58.2142 15.331C59.9391 10.4439 62.6404 7.29031 67.2885 4.99116C70.8778 3.76074 73.4103 3.84797 77.2142 4.33101ZM62.7767 14.1435C61.6268 18.6156 62.6136 22.2258 64.7767 26.206C68.0849 29.09 70.8749 29.6249 75.2142 29.331C79.4035 27.6553 81.3995 25.438 83.2142 21.331C83.9207 17.1807 83.4107 15.6563 81.2142 12.0185C78.5368 9.14385 76.0957 8.30572 72.2103 8.09272C68.034 8.59127 65.3132 10.9454 62.7767 14.1435Z" fill="#7868DC"/>
</g>
<g filter="url(#filter2_f_47_27)">
<path d="M130.214 58.331C134.994 60.0516 138.994 62.6459 141.214 67.331C142.124 72.6498 141.867 76.9258 139.589 81.831C135.91 85.7036 132.539 87.4621 127.214 87.706C123.224 87.5084 120.526 86.686 117.214 84.331C114.096 80.6786 112.391 77.4686 111.652 72.706C112.529 67.4395 114.887 64.5 118.839 61.0185C122.849 58.1696 125.264 58.001 130.214 58.331ZM118.214 66.331C116.486 69.7884 116.725 73.5508 117.214 77.331C119.008 80.2013 120.197 81.8223 123.214 83.331C128.211 83.7081 131.205 83.4239 135.214 80.331C137.576 76.7887 137.814 74.7913 137.726 70.6279C136.931 67.0596 135.045 65.459 132.148 63.3662C126.558 60.3735 122.826 62.6849 118.214 66.331Z" fill="#19B8E9"/>
</g>
<g filter="url(#filter3_f_47_27)">
<path d="M24.3275 59.2841C28.3891 61.6305 31.5303 63.8056 33.2142 68.331C33.75 73.9569 33.4032 77.4924 30.2142 82.331C25.3794 86.6941 22.2467 87.8008 15.8275 87.745C11.451 87.0516 8.95472 84.6867 6.21419 81.331C3.8916 77.3927 3.74695 73.8477 4.21419 69.331C5.94009 64.4013 8.67527 61.2888 13.3626 58.995C17.3202 57.5756 20.4752 57.5466 24.3275 59.2841ZM10.2142 66.331C7.72911 70.0586 7.94748 71.8049 8.55013 76.1005C9.74524 80.1147 11.5957 81.2537 15.2142 83.331C19.7299 84.1373 21.6059 83.6802 25.5892 81.3935C28.6448 78.5104 29.254 75.596 29.4525 71.4833C29.0801 68.1194 27.6937 66.5424 25.2142 64.331C19.4919 60.4546 15.3396 62.3446 10.2142 66.331Z" fill="#D616CC"/>
</g>
<g filter="url(#filter4_f_47_27)">
<path d="M23.2142 99.331C26.7103 100.767 28.2945 102.459 30.4642 105.518C34.4256 110.809 38.9665 115.143 44.4525 118.839C45.0339 119.331 45.6152 119.824 46.2142 120.331C46.2142 121.321 46.2142 122.311 46.2142 123.331C38.5584 122.853 33.1776 116.464 28.3392 111.143C26.0922 108.595 24.1009 106.161 22.2142 103.331C22.5892 101.143 22.5892 101.143 23.2142 99.331Z" fill="#BB2CCF"/>
</g>
<g filter="url(#filter5_f_47_27)">
<path d="M120.214 99.331C121.204 99.661 122.194 99.991 123.214 100.331C122.235 109.07 113.33 115.429 107.136 121.054C104.854 122.57 102.908 122.955 100.214 123.331C100.214 122.011 100.214 120.691 100.214 119.331C101.937 117.655 101.937 117.655 104.277 116.018C110.768 111.242 116.009 106.228 120.214 99.331Z" fill="#33A2E5"/>
</g>
<g filter="url(#filter6_f_47_27)">
<path d="M100.214 22.331C108.835 23.7381 116.09 32.7649 121.214 39.331C123.214 42.331 123.214 42.331 123.214 46.331C120.338 45.9874 119.34 45.4684 117.355 43.2919C116.731 42.4386 116.107 41.5852 115.464 40.706C110.755 34.5645 105.404 29.9183 99.2142 25.331C99.5442 24.341 99.8742 23.351 100.214 22.331Z" fill="#32A1E4"/>
</g>
<g filter="url(#filter7_f_47_27)">
<path d="M43.2142 22.331C44.2042 22.661 45.1942 22.991 46.2142 23.331C46.2142 24.321 46.2142 25.311 46.2142 26.331C44.1244 27.9521 44.1244 27.9521 41.2767 29.7685C34.6614 34.353 30.674 39.7239 26.2142 46.331C24.8942 46.001 23.5742 45.671 22.2142 45.331C25.9519 35.1503 33.9603 27.7156 43.2142 22.331Z" fill="#BD2CD0"/>
</g>
<defs>
<filter id="filter0_f_47_27" x="53.8892" y="107.986" width="37.6372" height="37.9704" filterUnits="userSpaceOnUse" color-interpolation-filters="sRGB">
<feFlood flood-opacity="0" result="BackgroundImageFix"/>
<feBlend mode="normal" in="SourceGraphic" in2="BackgroundImageFix" result="shape"/>
<feGaussianBlur stdDeviation="2" result="effect1_foregroundBlur_47_27"/>
</filter>
<filter id="filter1_f_47_27" x="53.9949" y="0" width="37.3888" height="37.6791" filterUnits="userSpaceOnUse" color-interpolation-filters="sRGB">
<feFlood flood-opacity="0" result="BackgroundImageFix"/>
<feBlend mode="normal" in="SourceGraphic" in2="BackgroundImageFix" result="shape"/>
<feGaussianBlur stdDeviation="2" result="effect1_foregroundBlur_47_27"/>
</filter>
<filter id="filter2_f_47_27" x="107.652" y="54.2088" width="38.0525" height="37.4972" filterUnits="userSpaceOnUse" color-interpolation-filters="sRGB">
<feFlood flood-opacity="0" result="BackgroundImageFix"/>
<feBlend mode="normal" in="SourceGraphic" in2="BackgroundImageFix" result="shape"/>
<feGaussianBlur stdDeviation="2" result="effect1_foregroundBlur_47_27"/>
</filter>
<filter id="filter3_f_47_27" x="0" y="53.9537" width="37.4204" height="37.7933" filterUnits="userSpaceOnUse" color-interpolation-filters="sRGB">
<feFlood flood-opacity="0" result="BackgroundImageFix"/>
<feBlend mode="normal" in="SourceGraphic" in2="BackgroundImageFix" result="shape"/>
<feGaussianBlur stdDeviation="2" result="effect1_foregroundBlur_47_27"/>
</filter>
<filter id="filter4_f_47_27" x="18.2142" y="95.331" width="32" height="32" filterUnits="userSpaceOnUse" color-interpolation-filters="sRGB">
<feFlood flood-opacity="0" result="BackgroundImageFix"/>
<feBlend mode="normal" in="SourceGraphic" in2="BackgroundImageFix" result="shape"/>
<feGaussianBlur stdDeviation="2" result="effect1_foregroundBlur_47_27"/>
</filter>
<filter id="filter5_f_47_27" x="96.2142" y="95.331" width="31" height="32" filterUnits="userSpaceOnUse" color-interpolation-filters="sRGB">
<feFlood flood-opacity="0" result="BackgroundImageFix"/>
<feBlend mode="normal" in="SourceGraphic" in2="BackgroundImageFix" result="shape"/>
<feGaussianBlur stdDeviation="2" result="effect1_foregroundBlur_47_27"/>
</filter>
<filter id="filter6_f_47_27" x="95.2142" y="18.331" width="32" height="32" filterUnits="userSpaceOnUse" color-interpolation-filters="sRGB">
<feFlood flood-opacity="0" result="BackgroundImageFix"/>
<feBlend mode="normal" in="SourceGraphic" in2="BackgroundImageFix" result="shape"/>
<feGaussianBlur stdDeviation="2" result="effect1_foregroundBlur_47_27"/>
</filter>
<filter id="filter7_f_47_27" x="18.2142" y="18.331" width="32" height="32" filterUnits="userSpaceOnUse" color-interpolation-filters="sRGB">
<feFlood flood-opacity="0" result="BackgroundImageFix"/>
<feBlend mode="normal" in="SourceGraphic" in2="BackgroundImageFix" result="shape"/>
<feGaussianBlur stdDeviation="2" result="effect1_foregroundBlur_47_27"/>
</filter>
</defs>
</svg>
