<svg width="139" height="139" viewBox="0 0 139 139" fill="none" xmlns="http://www.w3.org/2000/svg">
<path d="M75.1133 109.953C79.1733 112.299 82.351 114.465 84 119C84.7344 124.655 84.339 129.214 81 134C77.4035 137.417 74.3978 138.333 69.5625 138.625C64.5395 138.447 61.913 137.163 58.3399 133.703C55.4117 129.981 54.5394 126.891 54.6914 122.09C55.3325 117.749 57.2221 114.492 60.5782 111.676C65.2639 108.668 69.8129 107.563 75.1133 109.953Z" fill="#7767DA"/>
<path d="M127 55C131.78 56.7206 135.78 59.3149 138 64C138.91 69.3188 138.652 73.5948 136.375 78.5C132.696 82.3726 129.324 84.1311 124 84.375C120.01 84.1774 117.312 83.355 114 81C110.882 77.3476 109.177 74.1376 108.438 69.375C109.315 64.1085 111.673 61.169 115.625 57.6875C119.635 54.8386 122.05 54.67 127 55Z" fill="#19B8E9"/>
<path d="M74 1.00001C79.1021 3.69546 82.1738 6.52144 84 12C84.5017 18.1209 84.0883 21.1167 80 26C76.0537 29.468 72.4102 30.4216 67.1289 30.3438C63.2942 29.7246 60.6957 27.7099 58 25C55.0557 20.6311 54.3585 17.2237 55 12C56.7249 7.11295 59.4262 3.95932 64.0742 1.66017C67.6636 0.429751 70.1961 0.516975 74 1.00001Z" fill="#7868DC"/>
<path d="M21.1132 55.9531C25.1749 58.2995 28.3161 60.4746 30 65C30.5358 70.626 30.189 74.1614 27 79C22.1652 83.3631 19.0325 84.4698 12.6132 84.4141C8.23675 83.7206 5.74049 81.3558 2.99996 78C0.677368 74.0617 0.532713 70.5167 0.999959 66C2.72586 61.0703 5.46104 57.9579 10.1484 55.6641C14.106 54.2447 17.2609 54.2157 21.1132 55.9531Z" fill="#D616CC"/>
<path d="M75.1133 109.953C79.1733 112.299 82.351 114.465 84 119C84.7344 124.655 84.339 129.214 81 134C77.4035 137.417 74.3978 138.333 69.5625 138.625C64.5395 138.447 61.913 137.163 58.3399 133.703C55.4117 129.981 54.5394 126.891 54.6914 122.09C55.3325 117.749 57.2221 114.492 60.5782 111.676C65.2639 108.668 69.8129 107.563 75.1133 109.953ZM62 116.063C59.6056 119.579 59 121.752 59 126C60.4696 129.233 62.2784 131.726 65 134C68.0645 134.689 70.9217 134.594 74 134C76.7557 131.818 78.4359 130.128 80 127C80.3945 122.819 80.4504 120.691 78.125 117.125C75.2806 114.281 73.6113 113.796 69.6875 113.625C66.0584 113.678 65.1257 113.914 62 116.063Z" fill="#7767DA"/>
<path d="M74 1.00001C79.1021 3.69546 82.1738 6.52144 84 12C84.5017 18.1209 84.0883 21.1167 80 26C76.0537 29.468 72.4102 30.4216 67.1289 30.3438C63.2942 29.7246 60.6957 27.7099 58 25C55.0557 20.6311 54.3585 17.2237 55 12C56.7249 7.11295 59.4262 3.95932 64.0742 1.66017C67.6636 0.429751 70.1961 0.516975 74 1.00001ZM59.5625 10.8125C58.4125 15.2846 59.3994 18.8948 61.5625 22.875C64.8706 25.759 67.6606 26.2939 72 26C76.1893 24.3243 78.1853 22.107 80 18C80.7064 13.8498 80.1964 12.3253 78 8.68751C75.3226 5.81285 72.8815 4.97473 68.9961 4.76173C64.8197 5.26028 62.099 7.61437 59.5625 10.8125Z" fill="#7868DC"/>
<path d="M127 55C131.78 56.7206 135.78 59.3149 138 64C138.91 69.3188 138.652 73.5948 136.375 78.5C132.696 82.3726 129.324 84.1311 124 84.375C120.01 84.1774 117.312 83.355 114 81C110.882 77.3476 109.177 74.1376 108.438 69.375C109.315 64.1085 111.673 61.169 115.625 57.6875C119.635 54.8386 122.05 54.67 127 55ZM115 63C113.271 66.4574 113.51 70.2198 114 74C115.794 76.8703 116.983 78.4913 120 80C124.997 80.3771 127.991 80.0929 132 77C134.362 73.4577 134.6 71.4603 134.512 67.2969C133.717 63.7286 131.831 62.128 128.934 60.0352C123.344 57.0425 119.611 59.3539 115 63Z" fill="#19B8E9"/>
<path d="M21.1132 55.9531C25.1749 58.2995 28.3161 60.4746 30 65C30.5358 70.626 30.189 74.1614 27 79C22.1652 83.3631 19.0325 84.4698 12.6132 84.4141C8.23675 83.7206 5.74049 81.3558 2.99996 78C0.677368 74.0617 0.532713 70.5167 0.999959 66C2.72586 61.0703 5.46104 57.9579 10.1484 55.6641C14.106 54.2447 17.2609 54.2157 21.1132 55.9531ZM6.99996 63C4.51488 66.7276 4.73324 68.4739 5.3359 72.7695C6.531 76.7837 8.38148 77.9227 12 80C16.5156 80.8064 18.3916 80.3492 22.375 78.0625C25.4305 75.1794 26.0398 72.2651 26.2382 68.1524C25.8658 64.7884 24.4795 63.2114 22 61C16.2777 57.1236 12.1253 59.0136 6.99996 63Z" fill="#D616CC"/>
<path d="M20 96C23.4961 97.4364 25.0802 99.1277 27.25 102.188C31.2114 107.478 35.7523 111.812 41.2383 115.508C41.8196 116 42.401 116.493 43 117C43 117.99 43 118.98 43 120C35.3442 119.522 29.9634 113.133 25.125 107.812C22.878 105.264 20.8866 102.83 19 100C19.375 97.8125 19.375 97.8125 20 96Z" fill="#BB2CCF"/>
<path d="M117 96C117.99 96.33 118.98 96.66 120 97C119.02 105.739 110.116 112.098 103.922 117.723C101.64 119.239 99.6933 119.624 97 120C97 118.68 97 117.36 97 116C98.7227 114.324 98.7227 114.324 101.062 112.688C107.553 107.911 112.795 102.897 117 96Z" fill="#33A2E5"/>
<path d="M97 19C105.621 20.4071 112.875 29.434 118 36C120 39 120 39 120 43C117.124 42.6564 116.125 42.1374 114.141 39.9609C113.517 39.1076 112.893 38.2542 112.25 37.375C107.541 31.2335 102.19 26.5874 96 22C96.33 21.01 96.66 20.02 97 19Z" fill="#32A1E4"/>
<path d="M40 19C40.99 19.33 41.98 19.66 43 20C43 20.99 43 21.98 43 23C40.9102 24.6211 40.9102 24.6211 38.0625 26.4375C31.4471 31.022 27.4598 36.3929 23 43C21.68 42.67 20.36 42.34 19 42C22.7377 31.8193 30.7461 24.3846 40 19Z" fill="#BD2CD0"/>
</svg>
