<svg width="138" height="138" viewBox="0 0 138 138" fill="none" xmlns="http://www.w3.org/2000/svg">
<path d="M74.3276 109.284C78.3876 111.63 81.5652 113.796 83.2143 118.331C83.9487 123.986 83.5533 128.545 80.2143 133.331C76.6178 136.748 73.612 137.664 68.7768 137.956C63.7538 137.778 61.1272 136.494 57.5541 133.034C54.6259 129.312 53.7537 126.222 53.9057 121.421C54.5467 117.08 56.4363 113.823 59.7924 111.007C64.4781 107.999 69.0271 106.894 74.3276 109.284ZM61.2143 115.394C58.8199 118.91 58.2143 121.083 58.2143 125.331C59.6839 128.564 61.4926 131.057 64.2143 133.331C67.2787 134.02 70.1359 133.925 73.2143 133.331C75.97 131.149 77.6502 129.459 79.2143 126.331C79.6087 122.15 79.6646 120.022 77.3393 116.456C74.4949 113.612 72.8255 113.127 68.9018 112.956C65.2726 113.009 64.3399 113.245 61.2143 115.394Z" fill="#DDDDDD"/>
<path d="M73.2142 0.331005C78.3163 3.02645 81.3881 5.85244 83.2142 11.331C83.716 17.4519 83.3026 20.4477 79.2142 25.331C75.268 28.799 71.6244 29.7526 66.3432 29.6748C62.5084 29.0556 59.9099 27.0409 57.2142 24.331C54.27 19.9621 53.5727 16.5546 54.2142 11.331C55.9391 6.44394 58.6404 3.29031 63.2885 0.991162C66.8778 -0.239255 69.4103 -0.152031 73.2142 0.331005ZM58.7767 10.1435C57.6268 14.6156 58.6136 18.2258 60.7767 22.206C64.0849 25.09 66.8749 25.6249 71.2142 25.331C75.4035 23.6553 77.3995 21.438 79.2142 17.331C79.9207 13.1807 79.4107 11.6563 77.2142 8.01851C74.5368 5.14385 72.0957 4.30572 68.2103 4.09272C64.034 4.59127 61.3132 6.94536 58.7767 10.1435Z" fill="#DDDDDD"/>
<path d="M126.214 54.331C130.994 56.0516 134.994 58.6459 137.214 63.331C138.124 68.6498 137.867 72.9258 135.589 77.831C131.91 81.7036 128.539 83.4621 123.214 83.706C119.224 83.5084 116.526 82.686 113.214 80.331C110.096 76.6786 108.391 73.4686 107.652 68.706C108.529 63.4395 110.887 60.5 114.839 57.0185C118.849 54.1696 121.264 54.001 126.214 54.331ZM114.214 62.331C112.486 65.7884 112.725 69.5508 113.214 73.331C115.008 76.2013 116.197 77.8223 119.214 79.331C124.211 79.7081 127.205 79.4239 131.214 76.331C133.576 72.7887 133.814 70.7913 133.726 66.6279C132.931 63.0596 131.045 61.459 128.148 59.3662C122.558 56.3735 118.826 58.6849 114.214 62.331Z" fill="#DDDDDD"/>
<path d="M20.3275 55.2841C24.3891 57.6305 27.5303 59.8056 29.2142 64.331C29.75 69.9569 29.4032 73.4924 26.2142 78.331C21.3794 82.6941 18.2467 83.8008 11.8275 83.745C7.45099 83.0516 4.95472 80.6867 2.21419 77.331C-0.108399 73.3927 -0.253054 69.8477 0.214192 65.331C1.94009 60.4013 4.67527 57.2888 9.36263 54.995C13.3202 53.5756 16.4752 53.5466 20.3275 55.2841ZM6.21419 62.331C3.72911 66.0586 3.94748 67.8049 4.55013 72.1005C5.74524 76.1147 7.59571 77.2537 11.2142 79.331C15.7299 80.1373 17.6059 79.6802 21.5892 77.3935C24.6448 74.5104 25.254 71.596 25.4525 67.4833C25.0801 64.1194 23.6937 62.5424 21.2142 60.331C15.4919 56.4546 11.3396 58.3446 6.21419 62.331Z" fill="#DDDDDD"/>
<path d="M19.2142 95.331C22.7103 96.7674 24.2945 98.4587 26.4642 101.518C30.4256 106.809 34.9665 111.143 40.4525 114.839C41.0339 115.331 41.6152 115.824 42.2142 116.331C42.2142 117.321 42.2142 118.311 42.2142 119.331C34.5584 118.853 29.1776 112.464 24.3392 107.143C22.0922 104.595 20.1009 102.161 18.2142 99.331C18.5892 97.1435 18.5892 97.1435 19.2142 95.331Z" fill="#DDDDDD"/>
<path d="M116.214 95.331C117.204 95.661 118.194 95.991 119.214 96.331C118.235 105.07 109.33 111.429 103.136 117.054C100.854 118.57 98.9075 118.955 96.2142 119.331C96.2142 118.011 96.2142 116.691 96.2142 115.331C97.9369 113.655 97.9369 113.655 100.277 112.018C106.768 107.242 112.009 102.228 116.214 95.331Z" fill="#DDDDDD"/>
<path d="M96.2142 18.331C104.835 19.7381 112.09 28.7649 117.214 35.331C119.214 38.331 119.214 38.331 119.214 42.331C116.338 41.9874 115.34 41.4684 113.355 39.2919C112.731 38.4386 112.107 37.5852 111.464 36.706C106.755 30.5645 101.404 25.9183 95.2142 21.331C95.5442 20.341 95.8742 19.351 96.2142 18.331Z" fill="#DDDDDD"/>
<path d="M39.2142 18.331C40.2042 18.661 41.1942 18.991 42.2142 19.331C42.2142 20.321 42.2142 21.311 42.2142 22.331C40.1244 23.9521 40.1244 23.9521 37.2767 25.7685C30.6614 30.353 26.674 35.7239 22.2142 42.331C20.8942 42.001 19.5742 41.671 18.2142 41.331C21.9519 31.1503 29.9603 23.7156 39.2142 18.331Z" fill="#DDDDDD"/>
</svg>
